<svg width="21" height="20" viewBox="0 0 21 20" fill="none" xmlns="http://www.w3.org/2000/svg">
<path d="M10.5 0C4.97715 0 0.5 4.47715 0.5 10C0.5 15.5228 4.97715 20 10.5 20C16.0228 20 20.5 15.5228 20.5 10C20.4936 4.47982 16.0202 0.00642897 10.5 0Z" fill="#5243C2" fill-opacity="0.15"/>
<path d="M16.2725 6.83331L10.5683 14.5741C10.4323 14.7546 10.2295 14.8729 10.0054 14.9024C9.78127 14.9318 9.55475 14.87 9.37668 14.7308L5.30334 11.4741C4.9439 11.1865 4.8857 10.6619 5.17334 10.3025C5.46099 9.94303 5.98557 9.88483 6.34501 10.1725L9.74168 12.89L14.9308 5.84748C15.101 5.59214 15.3977 5.45096 15.7032 5.48001C16.0087 5.50906 16.2734 5.70362 16.3924 5.98646C16.5114 6.26929 16.4653 6.59463 16.2725 6.83331Z" fill="#00449B"/>
</svg>
