<svg width="21" height="20" viewBox="0 0 21 20" fill="none" xmlns="http://www.w3.org/2000/svg">
<path opacity="0.1" d="M10.5 0C4.97715 0 0.5 4.47715 0.5 10C0.5 15.5228 4.97715 20 10.5 20C16.0228 20 20.5 15.5228 20.5 10C20.4936 4.47982 16.0202 0.00642897 10.5 0Z" fill="white"/>
<path d="M16.2725 6.83331L10.5683 14.5741C10.4323 14.7546 10.2294 14.8729 10.0053 14.9024C9.78126 14.9318 9.55473 14.87 9.37666 14.7308L5.30333 11.4741C4.94388 11.1865 4.88568 10.6619 5.17333 10.3025C5.46098 9.94303 5.98555 9.88483 6.345 10.1725L9.74166 12.89L14.9308 5.84748C15.101 5.59214 15.3977 5.45096 15.7032 5.48001C16.0086 5.50906 16.2734 5.70362 16.3924 5.98646C16.5114 6.26929 16.4653 6.59463 16.2725 6.83331Z" fill="white"/>
</svg>
