<svg width="202" height="50" viewBox="0 0 202 50" fill="none" xmlns="http://www.w3.org/2000/svg">
<g filter="url(#filter0_d_128_1595)">
<path d="M17.9452 7.72815H11.5005L27.4524 37.7123L30.8348 31.9531L17.9452 7.72815Z" stroke="white" stroke-width="2"/>
<path d="M42.0782 6.03699L33.1196 23.5887L34.8565 26.4225L44.0894 8.73373H47.8374L30.6514 41.9631H49.7571L51.5397 38.9007H35.5878L52.4996 6.03699H42.0782Z" stroke="white" stroke-width="1.4"/>
</g>
<g filter="url(#filter1_d_128_1595)">
<path d="M69.1215 31.5L62.3895 16.1H65.4915L71.4975 30.026H69.7155L75.7875 16.1H78.6475L71.9375 31.5H69.1215ZM85.1341 22.502H92.7901V24.856H85.1341V22.502ZM85.3541 29.102H94.0441V31.5H82.4941V16.1H93.7361V18.498H85.3541V29.102ZM99.4324 31.5V16.1H102.292V29.08H110.344V31.5H99.4324ZM121.651 31.72C120.478 31.72 119.385 31.5293 118.373 31.148C117.376 30.752 116.503 30.202 115.755 29.498C115.022 28.7793 114.45 27.936 114.039 26.968C113.628 26 113.423 24.944 113.423 23.8C113.423 22.656 113.628 21.6 114.039 20.632C114.45 19.664 115.029 18.828 115.777 18.124C116.525 17.4053 117.398 16.8553 118.395 16.474C119.392 16.078 120.485 15.88 121.673 15.88C122.934 15.88 124.086 16.1 125.127 16.54C126.168 16.9653 127.048 17.6033 127.767 18.454L125.919 20.192C125.362 19.5907 124.738 19.1433 124.049 18.85C123.36 18.542 122.612 18.388 121.805 18.388C120.998 18.388 120.258 18.52 119.583 18.784C118.923 19.048 118.344 19.422 117.845 19.906C117.361 20.39 116.98 20.962 116.701 21.622C116.437 22.282 116.305 23.008 116.305 23.8C116.305 24.592 116.437 25.318 116.701 25.978C116.98 26.638 117.361 27.21 117.845 27.694C118.344 28.178 118.923 28.552 119.583 28.816C120.258 29.08 120.998 29.212 121.805 29.212C122.612 29.212 123.36 29.0653 124.049 28.772C124.738 28.464 125.362 28.002 125.919 27.386L127.767 29.146C127.048 29.982 126.168 30.62 125.127 31.06C124.086 31.5 122.927 31.72 121.651 31.72ZM139.601 31.72C138.398 31.72 137.291 31.522 136.279 31.126C135.267 30.73 134.387 30.18 133.639 29.476C132.891 28.7573 132.312 27.9213 131.901 26.968C131.49 26 131.285 24.944 131.285 23.8C131.285 22.656 131.49 21.6073 131.901 20.654C132.312 19.686 132.891 18.85 133.639 18.146C134.387 17.4273 135.267 16.87 136.279 16.474C137.291 16.078 138.391 15.88 139.579 15.88C140.782 15.88 141.882 16.078 142.879 16.474C143.891 16.87 144.771 17.4273 145.519 18.146C146.267 18.85 146.846 19.686 147.257 20.654C147.668 21.6073 147.873 22.656 147.873 23.8C147.873 24.944 147.668 26 147.257 26.968C146.846 27.936 146.267 28.772 145.519 29.476C144.771 30.18 143.891 30.73 142.879 31.126C141.882 31.522 140.789 31.72 139.601 31.72ZM139.579 29.212C140.356 29.212 141.075 29.08 141.735 28.816C142.395 28.552 142.967 28.178 143.451 27.694C143.935 27.1953 144.309 26.6233 144.573 25.978C144.852 25.318 144.991 24.592 144.991 23.8C144.991 23.008 144.852 22.2893 144.573 21.644C144.309 20.984 143.935 20.412 143.451 19.928C142.967 19.4293 142.395 19.048 141.735 18.784C141.075 18.52 140.356 18.388 139.579 18.388C138.802 18.388 138.083 18.52 137.423 18.784C136.778 19.048 136.206 19.4293 135.707 19.928C135.223 20.412 134.842 20.984 134.563 21.644C134.299 22.2893 134.167 23.008 134.167 23.8C134.167 24.5773 134.299 25.296 134.563 25.956C134.842 26.616 135.223 27.1953 135.707 27.694C136.191 28.178 136.763 28.552 137.423 28.816C138.083 29.08 138.802 29.212 139.579 29.212ZM153.105 31.5V16.1H155.459L162.191 27.342H160.959L167.581 16.1H169.935L169.957 31.5H167.251L167.229 20.346H167.801L162.169 29.74H160.893L155.173 20.346H155.833V31.5H153.105ZM174.446 31.5L180.936 22.568V24.724L174.754 16.1H177.988L182.586 22.48L181.266 22.502L185.82 16.1H188.922L182.784 24.57V22.502L189.318 31.5H186.018L181.178 24.724H182.476L177.702 31.5H174.446Z" fill="white"/>
</g>
<defs>
<filter id="filter0_d_128_1595" x="3.83569" y="0.337036" width="55.8113" height="49.326" filterUnits="userSpaceOnUse" color-interpolation-filters="sRGB">
<feFlood flood-opacity="0" result="BackgroundImageFix"/>
<feColorMatrix in="SourceAlpha" type="matrix" values="0 0 0 0 0 0 0 0 0 0 0 0 0 0 0 0 0 0 127 0" result="hardAlpha"/>
<feOffset dy="1"/>
<feGaussianBlur stdDeviation="3"/>
<feComposite in2="hardAlpha" operator="out"/>
<feColorMatrix type="matrix" values="0 0 0 0 0 0 0 0 0 0 0 0 0 0 0 0 0 0 0.65 0"/>
<feBlend mode="normal" in2="BackgroundImageFix" result="effect1_dropShadow_128_1595"/>
<feBlend mode="normal" in="SourceGraphic" in2="effect1_dropShadow_128_1595" result="shape"/>
</filter>
<filter id="filter1_d_128_1595" x="52.3894" y="7.88" width="146.929" height="35.84" filterUnits="userSpaceOnUse" color-interpolation-filters="sRGB">
<feFlood flood-opacity="0" result="BackgroundImageFix"/>
<feColorMatrix in="SourceAlpha" type="matrix" values="0 0 0 0 0 0 0 0 0 0 0 0 0 0 0 0 0 0 127 0" result="hardAlpha"/>
<feOffset dy="2"/>
<feGaussianBlur stdDeviation="5"/>
<feComposite in2="hardAlpha" operator="out"/>
<feColorMatrix type="matrix" values="0 0 0 0 0 0 0 0 0 0 0 0 0 0 0 0 0 0 0.8 0"/>
<feBlend mode="normal" in2="BackgroundImageFix" result="effect1_dropShadow_128_1595"/>
<feBlend mode="normal" in="SourceGraphic" in2="effect1_dropShadow_128_1595" result="shape"/>
</filter>
</defs>
</svg>
